<svg version="1.1" xmlns="http://www.w3.org/2000/svg" xmlns:xlink="http://www.w3.org/1999/xlink" width="448px" height="512px" viewBox="0,0,224,256"><g fill="#ffffff" fill-rule="nonzero" stroke="none" stroke-width="1" stroke-linecap="butt" stroke-linejoin="miter" stroke-miterlimit="10" stroke-dasharray="" stroke-dashoffset="0" font-family="none" font-weight="none" font-size="none" text-anchor="none" style="mix-blend-mode: normal"><g transform="translate(0,0.00631) scale(0.5,0.5)"><path d="M159.3,5.4c7.8,-7.3 19.9,-7.2 27.7,0.1c27.6,25.9 53.5,53.8 77.7,84c11,-14.4 23.5,-30.1 37,-42.9c7.9,-7.4 20.1,-7.4 28,0.1c34.6,33 63.9,76.6 84.5,118c20.3,40.8 33.8,82.5 33.8,111.9c0,127.6 -99.8,235.4 -224,235.4c-125.6,0 -224,-107.9 -224,-235.5c0,-38.4 17.8,-85.3 45.4,-131.7c27.9,-47.1 67.3,-96.2 113.9,-139.4zM225.7,416c25.3,0 47.7,-7 68.8,-21c42.1,-29.4 53.4,-88.2 28.1,-134.4c-4.5,-9 -16,-9.6 -22.5,-2l-25.2,29.3c-6.6,7.6 -18.5,7.4 -24.7,-0.5c-16.5,-21 -46,-58.5 -62.8,-79.8c-6.3,-8 -18.3,-8.1 -24.7,-0.1c-33.8,42.5 -50.8,69.3 -50.8,99.4c0.1,68.5 50.7,109.1 113.8,109.1z"></path></g></g></svg>