<svg version="1.1" xmlns="http://www.w3.org/2000/svg" xmlns:xlink="http://www.w3.org/1999/xlink" width="512px" height="512px" viewBox="0,0,256,256"><g fill="#ffffff" fill-rule="nonzero" stroke="none" stroke-width="1" stroke-linecap="butt" stroke-linejoin="miter" stroke-miterlimit="10" stroke-dasharray="" stroke-dashoffset="0" font-family="none" font-weight="none" font-size="none" text-anchor="none" style="mix-blend-mode: normal"><g transform="scale(0.5,0.5)"><path d="M0,224c0,17.7 14.3,32 32,32c17.7,0 32,-14.3 32,-32c0,-53 43,-96 96,-96h160v32c0,12.9 7.8,24.6 19.8,29.6c12,5 25.7,2.2 34.9,-6.9l64,-64c12.5,-12.5 12.5,-32.8 0,-45.3l-64,-64c-9.2,-9.2 -22.9,-11.9 -34.9,-6.9c-12,5 -19.8,16.6 -19.8,29.5v32h-160c-88.4,0 -160,71.6 -160,160zM512,288c0,-17.7 -14.3,-32 -32,-32c-17.7,0 -32,14.3 -32,32c0,53 -43,96 -96,96h-160v-32c0,-12.9 -7.8,-24.6 -19.8,-29.6c-12,-5 -25.7,-2.2 -34.9,6.9l-64,64c-12.5,12.5 -12.5,32.8 0,45.3l64,64c9.2,9.2 22.9,11.9 34.9,6.9c12,-5 19.8,-16.6 19.8,-29.6v-32h160c88.4,0 160,-71.6 160,-160z"></path></g></g></svg>