<svg version="1.1" xmlns="http://www.w3.org/2000/svg" xmlns:xlink="http://www.w3.org/1999/xlink" width="576px" height="512px" viewBox="0,0,256,227.54688"><g fill="#ffffff" fill-rule="nonzero" stroke="none" stroke-width="1" stroke-linecap="butt" stroke-linejoin="miter" stroke-miterlimit="10" stroke-dasharray="" stroke-dashoffset="0" font-family="none" font-weight="none" font-size="none" text-anchor="none" style="mix-blend-mode: normal"><g transform="translate(0,-0.00434) scale(0.44444,0.44444)"><path d="M0,96c0,-35.3 28.7,-64 64,-64h448c35.3,0 64,28.7 64,64v320c0,35.3 -28.7,64 -64,64h-448c-35.3,0 -64,-28.7 -64,-64zM200,208c14.2,0 27,6.1 35.8,16c8.8,9.9 24,10.7 33.9,1.9c9.9,-8.8 10.7,-24 1.9,-33.9c-17.5,-19.6 -43.1,-32 -71.5,-32c-53,0 -96,43 -96,96c0,53 43,96 96,96c28.4,0 54,-12.4 71.5,-32c8.8,-9.9 8,-25 -1.9,-33.9c-9.9,-8.9 -25,-8 -33.9,1.9c-8.8,9.9 -21.6,16 -35.8,16c-26.5,0 -48,-21.5 -48,-48c0,-26.5 21.5,-48 48,-48zM344,256c0,-26.5 21.5,-48 48,-48c14.2,0 27,6.1 35.8,16c8.8,9.9 24,10.7 33.9,1.9c9.9,-8.8 10.7,-24 1.9,-33.9c-17.5,-19.6 -43.1,-32 -71.5,-32c-53,0 -96,43 -96,96c0,53 43,96 96,96c28.4,0 54,-12.4 71.5,-32c8.8,-9.9 8,-25 -1.9,-33.9c-9.9,-8.9 -25,-8 -33.9,1.9c-8.8,9.9 -21.6,16 -35.8,16c-26.5,0 -48,-21.5 -48,-48z"></path></g></g></svg>