<svg version="1.1" xmlns="http://www.w3.org/2000/svg" xmlns:xlink="http://www.w3.org/1999/xlink" width="512px" height="512px" viewBox="0,0,256,256"><g fill="#ffffff" fill-rule="nonzero" stroke="none" stroke-width="1" stroke-linecap="butt" stroke-linejoin="miter" stroke-miterlimit="10" stroke-dasharray="" stroke-dashoffset="0" font-family="none" font-weight="none" font-size="none" text-anchor="none" style="mix-blend-mode: normal"><g transform="scale(0.5,0.5)"><path d="M0,256c0,-141.3849 114.6151,-256 256,-256c141.3849,0 256,114.6151 256,256c0,141.3849 -114.6151,256 -256,256c-141.3849,0 -256,-114.6151 -256,-256zM288,96c0,-17.67311 -14.32689,-32 -32,-32c-17.67311,0 -32,14.32689 -32,32c0,17.67311 14.32689,32 32,32c17.67311,0 32,-14.32689 32,-32zM256,416c35.3,0 64,-28.7 64,-64c0,-17.4 -6.9,-33.1 -18.1,-44.6l64.1,-145.7c5.3,-12.1 -0.2,-26.3 -12.3,-31.6c-12.1,-5.3 -26.3,0.2 -31.6,12.3l-64.2,145.6c-0.6,0 -1.3,0 -1.9,0c-35.3,0 -64,28.7 -64,64c0,35.3 28.7,64 64,64zM176,144c0,-17.67311 -14.32689,-32 -32,-32c-17.67311,0 -32,14.32689 -32,32c0,17.67311 14.32689,32 32,32c17.67311,0 32,-14.32689 32,-32zM96,288c17.67311,0 32,-14.32689 32,-32c0,-17.67311 -14.32689,-32 -32,-32c-17.67311,0 -32,14.32689 -32,32c0,17.67311 14.32689,32 32,32zM448,256c0,-17.67311 -14.32689,-32 -32,-32c-17.67311,0 -32,14.32689 -32,32c0,17.67311 14.32689,32 32,32c17.67311,0 32,-14.32689 32,-32z"></path></g></g></svg>