<svg version="1.1" xmlns="http://www.w3.org/2000/svg" xmlns:xlink="http://www.w3.org/1999/xlink" width="512px" height="512px" viewBox="0,0,256,256"><g fill="#ffffff" fill-rule="nonzero" stroke="none" stroke-width="1" stroke-linecap="butt" stroke-linejoin="miter" stroke-miterlimit="10" stroke-dasharray="" stroke-dashoffset="0" font-family="none" font-weight="none" font-size="none" text-anchor="none" style="mix-blend-mode: normal"><g transform="translate(0.00625,-0.01875) scale(0.5,0.5)"><path d="M416,208c0,45.9 -14.9,88.3 -40,122.7l126.6,126.7c12.5,12.5 12.5,32.8 0,45.3c-12.5,12.5 -32.8,12.5 -45.3,0l-126.6,-126.7c-34.4,25.2 -76.8,40 -122.7,40c-114.9,0 -208,-93.1 -208,-208c0,-114.9 93.1,-208 208,-208c114.9,0 208,93.1 208,208zM208,352c79.529,0 144,-64.471 144,-144c0,-79.529 -64.471,-144 -144,-144c-79.529,0 -144,64.471 -144,144c0,79.529 64.471,144 144,144z"></path></g></g></svg>