<svg version="1.1" xmlns="http://www.w3.org/2000/svg" xmlns:xlink="http://www.w3.org/1999/xlink" width="512px" height="512px" viewBox="0,0,256,256"><g fill="#ffffff" fill-rule="nonzero" stroke="none" stroke-width="1" stroke-linecap="butt" stroke-linejoin="miter" stroke-miterlimit="10" stroke-dasharray="" stroke-dashoffset="0" font-family="none" font-weight="none" font-size="none" text-anchor="none" style="mix-blend-mode: normal"><g transform="translate(-0.025,-0.00553) scale(0.5,0.5)"><path d="M403.8,34.4c12,-5 25.7,-2.2 34.9,6.9l64,64c6,6 9.4,14.1 9.4,22.6c0,8.5 -3.4,16.6 -9.4,22.6l-64,64c-9.2,9.2 -22.9,11.9 -34.9,6.9c-12,-5 -19.8,-16.6 -19.8,-29.6v-32h-32c-10.1,0 -19.6,4.7 -25.6,12.8l-42.4,56.7l-40,-53.3l31.2,-41.6c18.1,-24.2 46.6,-38.4 76.8,-38.4h32v-32c0,-12.9 7.8,-24.6 19.8,-29.6zM164,282.7l40,53.3l-31.2,41.6c-18.1,24.2 -46.6,38.4 -76.8,38.4h-64c-17.7,0 -32,-14.3 -32,-32c0,-17.7 14.3,-32 32,-32h64c10.1,0 19.6,-4.7 25.6,-12.8zM438.6,470.7c-9.2,9.2 -22.9,11.9 -34.9,6.9c-12,-5 -19.8,-16.6 -19.8,-29.6v-32h-32c-30.2,0 -58.7,-14.2 -76.8,-38.4l-153.5,-204.8c-6,-8.1 -15.5,-12.8 -25.6,-12.8h-64c-17.7,0 -32,-14.3 -32,-32c0,-17.7 14.3,-32 32,-32h64c30.2,0 58.7,14.2 76.8,38.4l153.6,204.8c6,8.1 15.5,12.8 25.6,12.8h32v-32c0,-12.9 7.8,-24.6 19.8,-29.6c12,-5 25.7,-2.2 34.9,6.9l64,64c6,6 9.4,14.1 9.4,22.6c0,8.5 -3.4,16.6 -9.4,22.6l-64,64z"></path></g></g></svg>