<svg version="1.1" xmlns="http://www.w3.org/2000/svg" xmlns:xlink="http://www.w3.org/1999/xlink" width="448px" height="512px" viewBox="0,0,224,256"><g fill="#ffffff" fill-rule="nonzero" stroke="none" stroke-width="1" stroke-linecap="butt" stroke-linejoin="miter" stroke-miterlimit="10" stroke-dasharray="" stroke-dashoffset="0" font-family="none" font-weight="none" font-size="none" text-anchor="none" style="mix-blend-mode: normal"><g transform="translate(-0.00625,0) scale(0.5,0.5)"><path d="M9.4,233.4c-12.5,12.5 -12.5,32.8 0,45.3l160,160c12.5,12.5 32.8,12.5 45.3,0c12.5,-12.5 12.5,-32.8 0,-45.3l-105.5,-105.4h306.8c17.7,0 32,-14.3 32,-32c0,-17.7 -14.3,-32 -32,-32h-306.7l105.3,-105.4c12.5,-12.5 12.5,-32.8 0,-45.3c-12.5,-12.5 -32.8,-12.5 -45.3,0l-160,160z"></path></g></g></svg>