<svg version="1.1" xmlns="http://www.w3.org/2000/svg" xmlns:xlink="http://www.w3.org/1999/xlink" width="576px" height="512px" viewBox="0,0,256,227.54688"><g fill="#ffffff" fill-rule="nonzero" stroke="none" stroke-width="1" stroke-linecap="butt" stroke-linejoin="miter" stroke-miterlimit="10" stroke-dasharray="" stroke-dashoffset="0" font-family="none" font-weight="none" font-size="none" text-anchor="none" style="mix-blend-mode: normal"><g transform="translate(0,-0.00434) scale(0.44444,0.44444)"><path d="M0,96h576c0,-35.3 -28.7,-64 -64,-64h-448c-35.3,0 -64,28.7 -64,64zM0,128v288c0,35.3 28.7,64 64,64h448c35.3,0 64,-28.7 64,-64v-288zM64,405.3c0,-29.5 23.9,-53.3 53.3,-53.3h117.3c29.5,0 53.3,23.9 53.3,53.3c0,5.9 -4.8,10.7 -10.7,10.7h-202.5c-5.9,0 -10.7,-4.8 -10.7,-10.7zM176,192c35.34622,0 64,28.65378 64,64c0,35.34622 -28.65378,64 -64,64c-35.34622,0 -64,-28.65378 -64,-64c0,-35.34622 28.65378,-64 64,-64zM352,208c0,-8.8 7.2,-16 16,-16h128c8.8,0 16,7.2 16,16c0,8.8 -7.2,16 -16,16h-128c-8.8,0 -16,-7.2 -16,-16zM352,272c0,-8.8 7.2,-16 16,-16h128c8.8,0 16,7.2 16,16c0,8.8 -7.2,16 -16,16h-128c-8.8,0 -16,-7.2 -16,-16zM352,336c0,-8.8 7.2,-16 16,-16h128c8.8,0 16,7.2 16,16c0,8.8 -7.2,16 -16,16h-128c-8.8,0 -16,-7.2 -16,-16z"></path></g></g></svg>