<svg version="1.1" xmlns="http://www.w3.org/2000/svg" xmlns:xlink="http://www.w3.org/1999/xlink" width="448px" height="512px" viewBox="0,0,224,256"><g fill="#ffffff" fill-rule="nonzero" stroke="none" stroke-width="1" stroke-linecap="butt" stroke-linejoin="miter" stroke-miterlimit="10" stroke-dasharray="" stroke-dashoffset="0" font-family="none" font-weight="none" font-size="none" text-anchor="none" style="mix-blend-mode: normal"><g transform="scale(0.5,0.5)"><path d="M48,24c0,-13.3 -10.7,-24 -24,-24c-13.3,0 -24,10.7 -24,24v40v286.5v49.5v88c0,13.3 10.7,24 24,24c13.3,0 24,-10.7 24,-24v-100l80.3,-20.1c41.1,-10.3 84.6,-5.5 122.5,13.4c44.2,22.1 95.5,24.8 141.7,7.4l34.7,-13c12.5,-4.7 20.8,-16.6 20.8,-30v-279.7c0,-23 -24.2,-38 -44.8,-27.7l-9.6,4.8c-46.3,23.2 -100.8,23.2 -147.1,0c-35.1,-17.6 -75.4,-22 -113.5,-12.5l-85,21.4zM48,101.5l96.6,-24.2c27,-6.7 55.5,-3.6 80.4,8.8c54.9,27.4 118.7,29.7 175,6.8v241.8l-24.4,9.1c-33.7,12.6 -71.2,10.7 -103.4,-5.4c-48.2,-24.1 -103.3,-30.1 -155.6,-17.1l-68.6,17.2z"></path></g></g></svg>