<svg version="1.1" xmlns="http://www.w3.org/2000/svg" xmlns:xlink="http://www.w3.org/1999/xlink" width="512px" height="512px" viewBox="0,0,256,256"><g fill="#ffffff" fill-rule="nonzero" stroke="none" stroke-width="1" stroke-linecap="butt" stroke-linejoin="miter" stroke-miterlimit="10" stroke-dasharray="" stroke-dashoffset="0" font-family="none" font-weight="none" font-size="none" text-anchor="none" style="mix-blend-mode: normal"><g transform="translate(-3.99375,0) scale(0.5,0.5)"><path d="M386.3,160h-50.3c-17.7,0 -32,14.3 -32,32c0,17.7 14.3,32 32,32h128c17.7,0 32,-14.3 32,-32v-128c0,-17.7 -14.3,-32 -32,-32c-17.7,0 -32,14.3 -32,32v51.2l-17.6,-17.6c-87.5,-87.5 -229.3,-87.5 -316.8,0c-87.5,87.5 -87.5,229.3 0,316.8c87.5,87.5 229.3,87.5 316.8,0c12.5,-12.5 12.5,-32.8 0,-45.3c-12.5,-12.5 -32.8,-12.5 -45.3,0c-62.5,62.5 -163.8,62.5 -226.3,0c-62.5,-62.5 -62.5,-163.8 0,-226.3c62.5,-62.5 163.8,-62.5 226.3,0z"></path></g></g></svg>