<svg version="1.1" xmlns="http://www.w3.org/2000/svg" xmlns:xlink="http://www.w3.org/1999/xlink" width="320px" height="512px" viewBox="0,0,160,256"><g fill="#ffffff" fill-rule="nonzero" stroke="none" stroke-width="1" stroke-linecap="butt" stroke-linejoin="miter" stroke-miterlimit="10" stroke-dasharray="" stroke-dashoffset="0" font-family="none" font-weight="none" font-size="none" text-anchor="none" style="mix-blend-mode: normal"><g transform="translate(0,0.00683) scale(0.5,0.5)"><path d="M52.5,440.6c-9.5,7.9 -22.8,9.7 -34.1,4.4c-11.3,-5.3 -18.4,-16.6 -18.4,-29v-320c0,-12.4 7.2,-23.7 18.4,-29c11.2,-5.3 24.5,-3.6 34.1,4.4l192,160l11.5,9.6v-145c0,-17.7 14.3,-32 32,-32c17.7,0 32,14.3 32,32v320c0,17.7 -14.3,32 -32,32c-17.7,0 -32,-14.3 -32,-32v-145l-11.5,9.6z"></path></g></g></svg>