<svg version="1.1" xmlns="http://www.w3.org/2000/svg" xmlns:xlink="http://www.w3.org/1999/xlink" width="384px" height="512px" viewBox="0,0,192,256"><g fill="#ffffff" fill-rule="nonzero" stroke="none" stroke-width="1" stroke-linecap="butt" stroke-linejoin="miter" stroke-miterlimit="10" stroke-dasharray="" stroke-dashoffset="0" font-family="none" font-weight="none" font-size="none" text-anchor="none" style="mix-blend-mode: normal"><g transform="translate(-0.0118,0.0132) scale(0.5,0.5)"><path d="M190.4,74.1c5.6,-16.8 -3.5,-34.9 -20.2,-40.5c-16.7,-5.6 -34.9,3.5 -40.5,20.2l-128,384c-5.6,16.8 3.5,34.9 20.2,40.5c16.7,5.6 34.9,-3.5 40.5,-20.2zM261.3,32.4c-17.4,-2.9 -33.9,8.9 -36.8,26.3l-64,384c-2.9,17.4 8.9,33.9 26.3,36.8c17.4,2.9 33.9,-8.9 36.8,-26.3l64,-384c2.9,-17.4 -8.9,-33.9 -26.3,-36.8zM352,32c-17.7,0 -32,14.3 -32,32v384c0,17.7 14.3,32 32,32c17.7,0 32,-14.3 32,-32v-384c0,-17.7 -14.3,-32 -32,-32z"></path></g></g></svg>