<svg version="1.1" xmlns="http://www.w3.org/2000/svg" xmlns:xlink="http://www.w3.org/1999/xlink" width="448px" height="512px" viewBox="0,0,224,256"><g fill="#ffffff" fill-rule="nonzero" stroke="none" stroke-width="1" stroke-linecap="butt" stroke-linejoin="miter" stroke-miterlimit="10" stroke-dasharray="" stroke-dashoffset="0" font-family="none" font-weight="none" font-size="none" text-anchor="none" style="mix-blend-mode: normal"><g transform="scale(0.5,0.5)"><path d="M160,64c0,-17.7 -14.3,-32 -32,-32c-17.7,0 -32,14.3 -32,32v64h-64c-17.7,0 -32,14.3 -32,32c0,17.7 14.3,32 32,32h96c17.7,0 32,-14.3 32,-32zM32,320c-17.7,0 -32,14.3 -32,32c0,17.7 14.3,32 32,32h64v64c0,17.7 14.3,32 32,32c17.7,0 32,-14.3 32,-32v-96c0,-17.7 -14.3,-32 -32,-32zM352,64c0,-17.7 -14.3,-32 -32,-32c-17.7,0 -32,14.3 -32,32v96c0,17.7 14.3,32 32,32h96c17.7,0 32,-14.3 32,-32c0,-17.7 -14.3,-32 -32,-32h-64zM320,320c-17.7,0 -32,14.3 -32,32v96c0,17.7 14.3,32 32,32c17.7,0 32,-14.3 32,-32v-64h64c17.7,0 32,-14.3 32,-32c0,-17.7 -14.3,-32 -32,-32z"></path></g></g></svg>