<svg version="1.1" xmlns="http://www.w3.org/2000/svg" xmlns:xlink="http://www.w3.org/1999/xlink" width="512px" height="512px" viewBox="0,0,256,256"><g fill="#ffffff" fill-rule="nonzero" stroke="none" stroke-width="1" stroke-linecap="butt" stroke-linejoin="miter" stroke-miterlimit="10" stroke-dasharray="" stroke-dashoffset="0" font-family="none" font-weight="none" font-size="none" text-anchor="none" style="mix-blend-mode: normal"><g transform="scale(0.5,0.5)"><path d="M344,0h144c13.3,0 24,10.7 24,24v144c0,9.7 -5.8,18.5 -14.8,22.2c-9,3.7 -19.3,1.7 -26.2,-5.2l-39,-39l-87,87c-9.4,9.4 -24.6,9.4 -33.9,0l-32,-32c-9.4,-9.4 -9.4,-24.6 0,-33.9l87,-87l-39.1,-39.1c-6.9,-6.9 -8.9,-17.2 -5.2,-26.2c3.7,-9 12.5,-14.8 22.2,-14.8zM168,512h-144c-13.3,0 -24,-10.7 -24,-24v-144c0,-9.7 5.8,-18.5 14.8,-22.2c9,-3.7 19.3,-1.7 26.2,5.2l39,39l87,-87c9.4,-9.4 24.6,-9.4 33.9,0l32,32c9.4,9.4 9.4,24.6 0,33.9l-87,87l39,39c6.9,6.9 8.9,17.2 5.2,26.2c-3.7,9 -12.5,14.8 -22.2,14.8z"></path></g></g></svg>